<svg xmlns="http://www.w3.org/2000/svg" version="1.1" xmlns:xlink="http://www.w3.org/1999/xlink" xmlns:svgjs="http://svgjs.com/svgjs" width="72" height="91"><svg width="72" height="91" viewBox="0 0 72 91" fill="none" xmlns="http://www.w3.org/2000/svg">
<path d="M0.125 0H34.0625C41.0208 0 47 1.04167 52 3.125C57.0417 5.20833 60.9167 8.29167 63.625 12.375C66.3333 16.4583 67.6875 21.4792 67.6875 27.4375C67.6875 32.3125 66.8542 36.5 65.1875 40C63.5625 43.4583 61.25 46.3542 58.25 48.6875C55.2917 50.9792 51.8125 52.8125 47.8125 54.1875L41.875 57.3125H12.375L12.25 42.6875H34.1875C37.4792 42.6875 40.2083 42.1042 42.375 40.9375C44.5417 39.7708 46.1667 38.1458 47.25 36.0625C48.375 33.9792 48.9375 31.5625 48.9375 28.8125C48.9375 25.8958 48.3958 23.375 47.3125 21.25C46.2292 19.125 44.5833 17.5 42.375 16.375C40.1667 15.25 37.3958 14.6875 34.0625 14.6875H18.875V91H0.125V0ZM51 91L30.25 50.4375L50.0625 50.3125L71.0625 90.125V91H51Z" fill="#405390"></path>
</svg><style>@media (prefers-color-scheme: light) { :root { filter: none; } }
</style></svg>