<svg width="751" height="95" viewBox="0 0 751 95" fill="none" xmlns="http://www.w3.org/2000/svg">
<path d="M0.125 2H34.0625C41.0208 2 47 3.04167 52 5.125C57.0417 7.20833 60.9167 10.2917 63.625 14.375C66.3333 18.4583 67.6875 23.4792 67.6875 29.4375C67.6875 34.3125 66.8542 38.5 65.1875 42C63.5625 45.4583 61.25 48.3542 58.25 50.6875C55.2917 52.9792 51.8125 54.8125 47.8125 56.1875L41.875 59.3125H12.375L12.25 44.6875H34.1875C37.4792 44.6875 40.2083 44.1042 42.375 42.9375C44.5417 41.7708 46.1667 40.1458 47.25 38.0625C48.375 35.9792 48.9375 33.5625 48.9375 30.8125C48.9375 27.8958 48.3958 25.375 47.3125 23.25C46.2292 21.125 44.5833 19.5 42.375 18.375C40.1667 17.25 37.3958 16.6875 34.0625 16.6875H18.875V93H0.125V2ZM51 93L30.25 52.4375L50.0625 52.3125L71.0625 92.125V93H51ZM143.188 78.375V93H94.75V78.375H143.188ZM100.875 2V93H82.125V2H100.875ZM136.875 39.0625V53.3125H94.75V39.0625H136.875ZM143.125 2V16.6875H94.75V2H143.125ZM182.062 93H162.25L162.375 78.375H182.062C186.979 78.375 191.125 77.2708 194.5 75.0625C197.875 72.8125 200.417 69.5417 202.125 65.25C203.875 60.9583 204.75 55.7708 204.75 49.6875V45.25C204.75 40.5833 204.25 36.4792 203.25 32.9375C202.292 29.3958 200.854 26.4167 198.938 24C197.021 21.5833 194.667 19.7708 191.875 18.5625C189.083 17.3125 185.875 16.6875 182.25 16.6875H161.875V2H182.25C188.333 2 193.896 3.04167 198.938 5.125C204.021 7.16667 208.417 10.1042 212.125 13.9375C215.833 17.7708 218.688 22.3542 220.688 27.6875C222.729 32.9792 223.75 38.875 223.75 45.375V49.6875C223.75 56.1458 222.729 62.0417 220.688 67.375C218.688 72.7083 215.833 77.2917 212.125 81.125C208.458 84.9167 204.062 87.8542 198.938 89.9375C193.854 91.9792 188.229 93 182.062 93ZM172.875 2V93H154.125V2H172.875ZM257.312 2V93H238.625V2H257.312ZM322.25 69.1875C322.25 67.5625 322 66.1042 321.5 64.8125C321.042 63.4792 320.167 62.2708 318.875 61.1875C317.583 60.0625 315.771 58.9583 313.438 57.875C311.104 56.7917 308.083 55.6667 304.375 54.5C300.25 53.1667 296.333 51.6667 292.625 50C288.958 48.3333 285.708 46.3958 282.875 44.1875C280.083 41.9375 277.875 39.3333 276.25 36.375C274.667 33.4167 273.875 29.9792 273.875 26.0625C273.875 22.2708 274.708 18.8333 276.375 15.75C278.042 12.625 280.375 9.95833 283.375 7.75C286.375 5.5 289.917 3.77083 294 2.5625C298.125 1.35417 302.646 0.75 307.562 0.75C314.271 0.75 320.125 1.95833 325.125 4.375C330.125 6.79167 334 10.1042 336.75 14.3125C339.542 18.5208 340.938 23.3333 340.938 28.75H322.312C322.312 26.0833 321.75 23.75 320.625 21.75C319.542 19.7083 317.875 18.1042 315.625 16.9375C313.417 15.7708 310.625 15.1875 307.25 15.1875C304 15.1875 301.292 15.6875 299.125 16.6875C296.958 17.6458 295.333 18.9583 294.25 20.625C293.167 22.25 292.625 24.0833 292.625 26.125C292.625 27.6667 293 29.0625 293.75 30.3125C294.542 31.5625 295.708 32.7292 297.25 33.8125C298.792 34.8958 300.688 35.9167 302.938 36.875C305.188 37.8333 307.792 38.7708 310.75 39.6875C315.708 41.1875 320.062 42.875 323.812 44.75C327.604 46.625 330.771 48.7292 333.312 51.0625C335.854 53.3958 337.771 56.0417 339.062 59C340.354 61.9583 341 65.3125 341 69.0625C341 73.0208 340.229 76.5625 338.688 79.6875C337.146 82.8125 334.917 85.4583 332 87.625C329.083 89.7917 325.604 91.4375 321.562 92.5625C317.521 93.6875 313 94.25 308 94.25C303.5 94.25 299.062 93.6667 294.688 92.5C290.312 91.2917 286.333 89.4792 282.75 87.0625C279.208 84.6458 276.375 81.5625 274.25 77.8125C272.125 74.0625 271.062 69.625 271.062 64.5H289.875C289.875 67.3333 290.312 69.7292 291.188 71.6875C292.062 73.6458 293.292 75.2292 294.875 76.4375C296.5 77.6458 298.417 78.5208 300.625 79.0625C302.875 79.6042 305.333 79.875 308 79.875C311.25 79.875 313.917 79.4167 316 78.5C318.125 77.5833 319.688 76.3125 320.688 74.6875C321.729 73.0625 322.25 71.2292 322.25 69.1875ZM406.5 62.8125H425.188C424.812 68.9375 423.125 74.375 420.125 79.125C417.167 83.875 413.021 87.5833 407.688 90.25C402.396 92.9167 396.021 94.25 388.562 94.25C382.729 94.25 377.5 93.25 372.875 91.25C368.25 89.2083 364.292 86.2917 361 82.5C357.75 78.7083 355.271 74.125 353.562 68.75C351.854 63.375 351 57.3542 351 50.6875V44.375C351 37.7083 351.875 31.6875 353.625 26.3125C355.417 20.8958 357.958 16.2917 361.25 12.5C364.583 8.70833 368.562 5.79167 373.188 3.75C377.812 1.70833 382.979 0.6875 388.688 0.6875C396.271 0.6875 402.667 2.0625 407.875 4.8125C413.125 7.5625 417.188 11.3542 420.062 16.1875C422.979 21.0208 424.729 26.5208 425.312 32.6875H406.562C406.354 29.0208 405.625 25.9167 404.375 23.375C403.125 20.7917 401.229 18.8542 398.688 17.5625C396.188 16.2292 392.854 15.5625 388.688 15.5625C385.562 15.5625 382.833 16.1458 380.5 17.3125C378.167 18.4792 376.208 20.25 374.625 22.625C373.042 25 371.854 28 371.062 31.625C370.312 35.2083 369.938 39.4167 369.938 44.25V50.6875C369.938 55.3958 370.292 59.5417 371 63.125C371.708 66.6667 372.792 69.6667 374.25 72.125C375.75 74.5417 377.667 76.375 380 77.625C382.375 78.8333 385.229 79.4375 388.562 79.4375C392.479 79.4375 395.708 78.8125 398.25 77.5625C400.792 76.3125 402.729 74.4583 404.062 72C405.438 69.5417 406.25 66.4792 406.5 62.8125ZM512.25 45.375V49.6875C512.25 56.6042 511.312 62.8125 509.438 68.3125C507.562 73.8125 504.917 78.5 501.5 82.375C498.083 86.2083 494 89.1458 489.25 91.1875C484.542 93.2292 479.312 94.25 473.562 94.25C467.854 94.25 462.625 93.2292 457.875 91.1875C453.167 89.1458 449.083 86.2083 445.625 82.375C442.167 78.5 439.479 73.8125 437.562 68.3125C435.688 62.8125 434.75 56.6042 434.75 49.6875V45.375C434.75 38.4167 435.688 32.2083 437.562 26.75C439.438 21.25 442.083 16.5625 445.5 12.6875C448.958 8.8125 453.042 5.85417 457.75 3.8125C462.5 1.77083 467.729 0.75 473.438 0.75C479.188 0.75 484.417 1.77083 489.125 3.8125C493.875 5.85417 497.958 8.8125 501.375 12.6875C504.833 16.5625 507.5 21.25 509.375 26.75C511.292 32.2083 512.25 38.4167 512.25 45.375ZM493.312 49.6875V45.25C493.312 40.4167 492.875 36.1667 492 32.5C491.125 28.8333 489.833 25.75 488.125 23.25C486.417 20.75 484.333 18.875 481.875 17.625C479.417 16.3333 476.604 15.6875 473.438 15.6875C470.271 15.6875 467.458 16.3333 465 17.625C462.583 18.875 460.521 20.75 458.812 23.25C457.146 25.75 455.875 28.8333 455 32.5C454.125 36.1667 453.688 40.4167 453.688 45.25V49.6875C453.688 54.4792 454.125 58.7292 455 62.4375C455.875 66.1042 457.167 69.2083 458.875 71.75C460.583 74.25 462.667 76.1458 465.125 77.4375C467.583 78.7292 470.396 79.375 473.562 79.375C476.729 79.375 479.542 78.7292 482 77.4375C484.458 76.1458 486.521 74.25 488.188 71.75C489.854 69.2083 491.125 66.1042 492 62.4375C492.875 58.7292 493.312 54.4792 493.312 49.6875ZM557.188 74L578.625 2H599.5L567.812 93H554.062L557.188 74ZM537.438 2L558.812 74L562.062 93H548.188L516.688 2H537.438ZM669.062 78.375V93H620.625V78.375H669.062ZM626.75 2V93H608V2H626.75ZM662.75 39.0625V53.3125H620.625V39.0625H662.75ZM669 2V16.6875H620.625V2H669ZM680 2H713.938C720.896 2 726.875 3.04167 731.875 5.125C736.917 7.20833 740.792 10.2917 743.5 14.375C746.208 18.4583 747.562 23.4792 747.562 29.4375C747.562 34.3125 746.729 38.5 745.062 42C743.438 45.4583 741.125 48.3542 738.125 50.6875C735.167 52.9792 731.688 54.8125 727.688 56.1875L721.75 59.3125H692.25L692.125 44.6875H714.062C717.354 44.6875 720.083 44.1042 722.25 42.9375C724.417 41.7708 726.042 40.1458 727.125 38.0625C728.25 35.9792 728.812 33.5625 728.812 30.8125C728.812 27.8958 728.271 25.375 727.188 23.25C726.104 21.125 724.458 19.5 722.25 18.375C720.042 17.25 717.271 16.6875 713.938 16.6875H698.75V93H680V2ZM730.875 93L710.125 52.4375L729.938 52.3125L750.938 92.125V93H730.875Z" fill="#405390"/>
</svg>
